<?xml version="1.0" encoding="UTF-8"?>
<svg xmlns="http://www.w3.org/2000/svg" width="128" height="128" viewBox="0 0 128 128" fill="none" role="img" aria-label="Marga Drishti Logo: An abstract digital eye and network node symbol">
  <desc>A modern abstract logo for Marga Drishti Traffic Intelligence System, representing vision, flow, and intelligent networking. No text or letters.</desc>
  
  <!-- Main stylized arcs and central circle in a modern tech blue -->
  <path d="M124.64 63.816C124.64 61.644 121.72 43.164 104.5 28.528C91.56 17.512 76.5 12.336 63.816 12.336C51.132 12.336 36.072 17.512 23.132 28.528C5.912 43.164 2.992 61.644 2.992 63.816M124.64 63.816C124.64 65.988 121.72 84.468 104.5 99.104C91.56 110.12 76.5 115.296 63.816 115.296C51.132 115.296 36.072 110.12 23.132 99.104C5.912 84.468 2.992 65.988 2.992 63.816" stroke="#005BCC" stroke-width="6.5" stroke-linecap="round"/>
  <path d="M107.5 64.088C107.5 88.228 87.94 107.788 63.8 107.788C39.66 107.788 20.1 88.228 20.1 64.088C20.1 39.948 39.66 20.388 63.8 20.388C87.94 20.388 107.5 39.948 107.5 64.088Z" stroke="#005BCC" stroke-width="4.5"/>
  <circle cx="63.8" cy="64.088" r="21.5" fill="#005BCC"/>
  
  <!-- Optimized with clean vector paths for scalability -->
</svg>
